<svg width="100" height="100" viewBox="0 0 100 100" fill="none" xmlns="http://www.w3.org/2000/svg">
<path d="M100 100H0V0H100V100ZM52.1953 52.1123C28.0282 49.5723 7.45384 56.8632 6.24121 68.3975C5.02889 79.9319 23.6383 91.3417 47.8057 93.8818C71.9727 96.4218 92.5471 89.1309 93.7598 77.5967C94.9721 66.0622 76.3627 54.6524 52.1953 52.1123ZM52.1953 6.11621C28.0282 3.57618 7.45384 10.8671 6.24121 22.4014C5.02889 33.9358 23.6383 45.3456 47.8057 47.8857C71.9727 50.4257 92.5471 43.1348 93.7598 31.6006C94.9721 20.0661 76.3627 8.65631 52.1953 6.11621Z" fill="white"/>
</svg>
