<svg width="469" height="100" viewBox="0 0 469 100" fill="none" xmlns="http://www.w3.org/2000/svg">
<g clip-path="url(#clip0_284_517)">
<rect width="100" height="7.5" rx="3.75" fill="white" fill-opacity="0.2"/>
<rect y="10" width="100" height="10" rx="5" fill="white" fill-opacity="0.4"/>
<rect y="22.5" width="100" height="15" rx="5" fill="white" fill-opacity="0.6"/>
<rect y="40" width="100" height="22.5" rx="5" fill="white" fill-opacity="0.8"/>
<rect y="65" width="100" height="35" rx="5" fill="white"/>
</g>
<path d="M146 92.5344V6.00317H180.491C186.666 6.00317 191.988 7.05942 196.456 9.17193C200.925 11.2844 204.378 14.2907 206.816 18.1907C209.253 22.0907 210.472 26.7219 210.472 32.0844C210.472 35.9844 209.578 39.4782 207.791 42.5657C206.084 45.6532 203.769 48.1313 200.844 50.0001C198 51.7876 194.953 52.8032 191.703 53.0469L191.094 51.9501C196.538 51.9501 200.763 53.2094 203.769 55.7282C206.775 58.1657 208.522 62.0251 209.009 67.3063L211.325 92.5344H198.041L195.969 69.0126C195.725 65.5188 194.547 62.9594 192.434 61.3344C190.322 59.6282 186.869 58.7751 182.075 58.7751H159.162V92.5344H146ZM159.162 46.7094H180.734C185.691 46.7094 189.591 45.4907 192.434 43.0532C195.359 40.5344 196.822 37.0001 196.822 32.4501C196.822 27.8188 195.359 24.2844 192.434 21.8469C189.509 19.3282 185.244 18.0688 179.638 18.0688H159.162V46.7094Z" fill="white"/>
<path d="M247.646 93.9969C241.308 93.9969 235.824 92.6157 231.193 89.8532C226.643 87.0907 223.108 83.1501 220.589 78.0313C218.152 72.9126 216.933 66.9407 216.933 60.1157C216.933 53.2907 218.152 47.3594 220.589 42.3219C223.108 37.2032 226.643 33.2626 231.193 30.5001C235.743 27.6563 241.105 26.2344 247.28 26.2344C253.13 26.2344 258.289 27.6157 262.758 30.3782C267.227 33.0594 270.68 36.9594 273.118 42.0782C275.636 47.1969 276.896 53.3719 276.896 60.6032V63.8938H230.339C230.664 70.2313 232.33 74.9844 235.336 78.1532C238.424 81.3219 242.568 82.9063 247.768 82.9063C251.586 82.9063 254.755 82.0126 257.274 80.2251C259.793 78.4376 261.539 76.0407 262.514 73.0344L275.921 73.8876C274.214 79.9001 270.843 84.7751 265.805 88.5126C260.849 92.1688 254.796 93.9969 247.646 93.9969ZM230.339 54.1438H263.246C262.839 48.3751 261.174 44.1094 258.249 41.3469C255.405 38.5844 251.749 37.2032 247.28 37.2032C242.649 37.2032 238.83 38.6657 235.824 41.5907C232.899 44.4344 231.071 48.6188 230.339 54.1438Z" fill="white"/>
<path d="M285.111 92.5344V27.6969H296.933L297.42 45.0032L295.836 44.1501C296.567 39.925 297.948 36.5125 299.98 33.9125C302.011 31.3125 304.489 29.4032 307.414 28.1844C310.339 26.8844 313.508 26.2344 316.92 26.2344C321.795 26.2344 325.817 27.3313 328.986 29.5251C332.236 31.6376 334.673 34.5626 336.298 38.3001C338.005 41.9563 338.858 46.1407 338.858 50.8532V92.5344H325.939V54.7532C325.939 50.9344 325.533 47.725 324.72 45.125C323.908 42.525 322.567 40.5344 320.698 39.1532C318.83 37.7719 316.392 37.0813 313.386 37.0813C308.836 37.0813 305.139 38.5844 302.295 41.5907C299.451 44.5969 298.03 48.9844 298.03 54.7532V92.5344H285.111Z" fill="white"/>
<path d="M349.981 92.5344V27.6969H361.803L362.29 45.0032L360.706 44.1501C361.437 39.925 362.818 36.5125 364.849 33.9125C366.881 31.3125 369.359 29.4032 372.284 28.1844C375.209 26.8844 378.378 26.2344 381.79 26.2344C386.665 26.2344 390.687 27.3313 393.856 29.5251C397.106 31.6376 399.543 34.5626 401.168 38.3001C402.874 41.9563 403.728 46.1407 403.728 50.8532V92.5344H390.809V54.7532C390.809 50.9344 390.403 47.725 389.59 45.125C388.778 42.525 387.437 40.5344 385.568 39.1532C383.699 37.7719 381.262 37.0813 378.256 37.0813C373.706 37.0813 370.009 38.5844 367.165 41.5907C364.321 44.5969 362.899 48.9844 362.899 54.7532V92.5344H349.981Z" fill="white"/>
<path d="M436.774 93.9969C430.274 93.9969 425.074 91.8438 421.174 87.5376C417.355 83.1501 415.446 77.0969 415.446 69.3782V27.6969H428.364V66.0876C428.364 71.9376 429.38 76.2438 431.411 79.0063C433.443 81.7688 436.53 83.15 440.674 83.15C445.386 83.15 449.043 81.6469 451.643 78.6407C454.324 75.5532 455.664 71.2469 455.664 65.7219V27.6969H468.583V92.5344H456.518L456.274 75.5938L458.102 76.3251C456.964 82.0126 454.568 86.4001 450.911 89.4876C447.255 92.4938 442.543 93.9969 436.774 93.9969Z" fill="white"/>
<defs>
<clipPath id="clip0_284_517">
<rect width="100" height="100" fill="white"/>
</clipPath>
</defs>
</svg>
