<svg width="469" height="100" viewBox="0 0 469 100" fill="none" xmlns="http://www.w3.org/2000/svg">
<path d="M100 100H0V0H100V100ZM52.1953 52.1123C28.0282 49.5723 7.45384 56.8632 6.24121 68.3975C5.02889 79.9319 23.6383 91.3417 47.8057 93.8818C71.9727 96.4218 92.5471 89.1309 93.7598 77.5967C94.9721 66.0622 76.3627 54.6524 52.1953 52.1123ZM52.1953 6.11621C28.0282 3.57618 7.45384 10.8671 6.24121 22.4014C5.02889 33.9358 23.6383 45.3456 47.8057 47.8857C71.9727 50.4257 92.5471 43.1348 93.7598 31.6006C94.9721 20.0661 76.3627 8.65631 52.1953 6.11621Z" fill="white"/>
<path d="M146 92.5342V6.00293H180.491C186.666 6.00293 191.988 7.05918 196.456 9.17168C200.925 11.2842 204.378 14.2904 206.816 18.1904C209.253 22.0904 210.472 26.7217 210.472 32.0842C210.472 35.9842 209.578 39.4779 207.791 42.5654C206.084 45.6529 203.769 48.1311 200.844 49.9998C198 51.7873 194.953 52.8029 191.703 53.0467L191.094 51.9498C196.538 51.9498 200.763 53.2092 203.769 55.7279C206.775 58.1654 208.522 62.0248 209.009 67.3061L211.325 92.5342H198.041L195.969 69.0123C195.725 65.5186 194.547 62.9592 192.434 61.3342C190.322 59.6279 186.869 58.7748 182.075 58.7748H159.162V92.5342H146ZM159.162 46.7092H180.734C185.691 46.7092 189.591 45.4904 192.434 43.0529C195.359 40.5342 196.822 36.9998 196.822 32.4498C196.822 27.8186 195.359 24.2842 192.434 21.8467C189.509 19.3279 185.244 18.0686 179.638 18.0686H159.162V46.7092Z" fill="white"/>
<path d="M247.646 93.9967C241.308 93.9967 235.824 92.6154 231.193 89.8529C226.643 87.0904 223.108 83.1498 220.589 78.0311C218.152 72.9123 216.933 66.9404 216.933 60.1154C216.933 53.2904 218.152 47.3592 220.589 42.3217C223.108 37.2029 226.643 33.2623 231.193 30.4998C235.743 27.6561 241.105 26.2342 247.28 26.2342C253.13 26.2342 258.289 27.6154 262.758 30.3779C267.227 33.0592 270.68 36.9592 273.118 42.0779C275.636 47.1967 276.896 53.3717 276.896 60.6029V63.8936H230.339C230.664 70.2311 232.33 74.9842 235.336 78.1529C238.424 81.3217 242.568 82.9061 247.768 82.9061C251.586 82.9061 254.755 82.0123 257.274 80.2248C259.793 78.4373 261.539 76.0404 262.514 73.0342L275.921 73.8873C274.214 79.8998 270.843 84.7748 265.805 88.5123C260.849 92.1686 254.796 93.9967 247.646 93.9967ZM230.339 54.1436H263.246C262.839 48.3748 261.174 44.1092 258.249 41.3467C255.405 38.5842 251.749 37.2029 247.28 37.2029C242.649 37.2029 238.83 38.6654 235.824 41.5904C232.899 44.4342 231.071 48.6186 230.339 54.1436Z" fill="white"/>
<path d="M285.111 92.5342V27.6967H296.933L297.42 45.0029L295.836 44.1498C296.567 39.9248 297.948 36.5123 299.98 33.9123C302.011 31.3123 304.489 29.4029 307.414 28.1842C310.339 26.8842 313.508 26.2342 316.92 26.2342C321.795 26.2342 325.817 27.3311 328.986 29.5248C332.236 31.6373 334.673 34.5623 336.298 38.2998C338.005 41.9561 338.858 46.1404 338.858 50.8529V92.5342H325.939V54.7529C325.939 50.9342 325.533 47.7248 324.72 45.1248C323.908 42.5248 322.567 40.5342 320.698 39.1529C318.83 37.7717 316.392 37.0811 313.386 37.0811C308.836 37.0811 305.139 38.5842 302.295 41.5904C299.451 44.5967 298.03 48.9842 298.03 54.7529V92.5342H285.111Z" fill="white"/>
<path d="M349.981 92.5342V27.6967H361.803L362.29 45.0029L360.706 44.1498C361.437 39.9248 362.818 36.5123 364.849 33.9123C366.881 31.3123 369.359 29.4029 372.284 28.1842C375.209 26.8842 378.378 26.2342 381.79 26.2342C386.665 26.2342 390.687 27.3311 393.856 29.5248C397.106 31.6373 399.543 34.5623 401.168 38.2998C402.874 41.9561 403.728 46.1404 403.728 50.8529V92.5342H390.809V54.7529C390.809 50.9342 390.403 47.7248 389.59 45.1248C388.778 42.5248 387.437 40.5342 385.568 39.1529C383.699 37.7717 381.262 37.0811 378.256 37.0811C373.706 37.0811 370.009 38.5842 367.165 41.5904C364.321 44.5967 362.899 48.9842 362.899 54.7529V92.5342H349.981Z" fill="white"/>
<path d="M436.774 93.9967C430.274 93.9967 425.074 91.8436 421.174 87.5373C417.355 83.1498 415.446 77.0967 415.446 69.3779V27.6967H428.364V66.0873C428.364 71.9373 429.38 76.2436 431.411 79.0061C433.443 81.7686 436.53 83.1498 440.674 83.1498C445.386 83.1498 449.043 81.6467 451.643 78.6404C454.324 75.5529 455.664 71.2467 455.664 65.7217V27.6967H468.583V92.5342H456.518L456.274 75.5936L458.102 76.3248C456.964 82.0123 454.568 86.3998 450.911 89.4873C447.255 92.4936 442.543 93.9967 436.774 93.9967Z" fill="white"/>
</svg>
